<?xml version="1.0" standalone="no"?>
<!DOCTYPE svg PUBLIC "-//W3C//DTD SVG 20010904//EN"
 "http://www.w3.org/TR/2001/REC-SVG-20010904/DTD/svg10.dtd">
<svg version="1.0" xmlns="http://www.w3.org/2000/svg"
 width="320.000000pt" height="320.000000pt" viewBox="0 0 320.000000 320.000000"
 preserveAspectRatio="xMidYMid meet">
<metadata>
Created by potrace 1.14, written by Peter Selinger 2001-2017
</metadata>
<g transform="translate(0.000000,320.000000) scale(0.100000,-0.100000)"
fill="#000000" stroke="none">
<path d="M1170 2910 c0 -5 -9 -10 -20 -10 -19 0 -48 -13 -80 -36 -8 -6 -44
-19 -79 -29 -43 -13 -65 -25 -69 -37 -2 -10 -10 -18 -18 -18 -7 0 -23 -13 -36
-30 -12 -16 -26 -30 -30 -30 -13 0 -74 -62 -81 -82 -4 -10 -11 -18 -17 -18 -5
0 -10 -6 -10 -13 0 -7 -18 -32 -40 -55 -22 -22 -40 -48 -40 -56 0 -21 -22 -66
-32 -66 -4 0 -8 -9 -8 -20 0 -11 -4 -20 -10 -20 -5 0 -10 -11 -10 -25 0 -14
-4 -25 -10 -25 -5 0 -10 -7 -10 -15 0 -8 -4 -15 -10 -15 -5 0 -10 -18 -10 -39
0 -22 -4 -43 -10 -46 -5 -3 -10 -32 -10 -64 0 -31 -5 -62 -11 -68 -15 -15 -8
-731 7 -741 13 -10 34 -59 34 -83 0 -10 4 -28 10 -39 6 -11 15 -29 20 -40 6
-11 10 -27 10 -35 0 -8 5 -15 10 -15 6 0 10 -9 10 -20 0 -11 7 -20 15 -20 8 0
17 -14 21 -35 3 -20 9 -34 11 -31 7 7 27 -14 36 -36 3 -10 12 -18 19 -18 14 0
48 -34 48 -48 0 -9 45 -52 54 -52 4 0 23 -16 43 -35 19 -19 45 -37 57 -41 24
-7 104 -41 126 -53 9 -5 30 -12 48 -15 17 -4 34 -12 37 -17 4 -5 14 -9 24 -9
10 0 24 -7 31 -15 7 -9 29 -15 50 -15 22 0 40 -5 42 -12 7 -19 616 -18 759 1
155 20 153 22 146 -133 -3 -66 -11 -139 -18 -161 -15 -52 -7 -184 12 -196 19
-12 70 -11 89 1 20 13 17 148 -5 224 -11 37 -16 95 -16 183 0 148 8 187 38
191 12 2 27 10 33 18 7 8 17 14 23 14 6 0 18 6 26 14 9 8 32 17 53 21 31 6 37
4 42 -13 4 -12 0 -47 -9 -80 -27 -105 -18 -142 35 -142 55 0 63 40 29 152 -25
80 -22 135 11 239 23 72 23 124 0 124 -8 0 -22 -15 -30 -32 -8 -18 -22 -33
-30 -33 -9 0 -20 -4 -25 -8 -16 -13 -76 -31 -145 -41 -36 -6 -186 -11 -333
-11 -235 0 -279 2 -350 20 -116 28 -157 42 -157 52 0 4 -7 8 -15 8 -8 0 -15 5
-15 10 0 6 -6 10 -14 10 -7 0 -19 6 -25 14 -7 8 -26 18 -42 21 -16 4 -29 12
-29 20 0 18 -45 27 -104 20 -28 -4 -62 -2 -76 4 -18 7 -20 10 -7 10 9 1 17 6
17 12 0 6 6 9 13 6 15 -5 52 58 61 105 5 27 2 41 -14 61 -17 21 -19 31 -11 46
27 49 4 110 -41 111 -9 0 -29 12 -43 26 -14 14 -32 24 -39 21 -7 -3 -19 3 -26
13 -8 11 -17 17 -22 14 -4 -3 -8 3 -8 13 0 11 -4 23 -10 29 -5 5 -15 45 -22
89 -18 107 -7 597 16 700 8 39 22 103 31 143 16 71 50 152 64 152 4 0 15 14
25 30 41 70 86 100 149 100 55 0 61 -10 54 -89 -3 -38 -11 -79 -16 -90 -6 -11
-11 -40 -11 -65 0 -37 4 -46 22 -52 15 -4 26 -1 35 12 15 20 14 53 -6 164 -12
65 -3 135 22 168 7 9 -13 12 -97 12 -64 0 -106 -4 -106 -10z"/>
<path d="M2543 1655 c17 -69 17 -96 2 -111 -15 -15 -17 -15 -29 1 -18 24 -42
13 -49 -22 -3 -15 -13 -57 -22 -93 -19 -75 -15 -148 10 -202 19 -38 33 -42 85
-20 14 5 44 18 67 27 27 11 50 30 62 51 18 30 19 42 11 126 -18 173 -22 185
-90 222 -19 11 -39 24 -43 30 -5 6 -6 3 -4 -9z m26 -292 c5 -10 10 -38 12 -63
l4 -45 -40 -6 c-22 -4 -44 -4 -49 -2 -12 8 -2 99 14 118 17 20 47 19 59 -2z"/>
</g>
</svg>
